<svg width="72.645mm" height="74.387mm" version="1.1" viewBox="0 0 72.645 74.387" xmlns="http://www.w3.org/2000/svg">
 <g transform="translate(-32.778 -25.708)">
  <text transform="scale(.26458)" fill="#000000" font-family="Sans" font-size="40px" letter-spacing="0px" word-spacing="0px" style="line-height:125%;shape-inside:url(#rect23711);white-space:pre" xml:space="preserve"/>
  <g transform="matrix(.88806 0 0 1.1261 -.46992 -3.0155)" stroke-width="1.3974px" aria-label="M">
   <path d="m99.671 91.568h-9.0728v-31.96l-8.9104 21.203h-6.41l-9.452-21.203v31.96h-8.9573v-40.934l12.307-8e-3 9.0669 23.138 8.9792-23.138h12.45z" fill="#e53e3e"/>
  </g>
  <path d="m44.766 84.921c-3.8106-0.87128-4.4187-1.2149-4.8948-1.8525-0.53413-0.71541-1.0932-1.0423-0.82296-12.903l-0.02991-12.236 0.84757-0.63608c0.63436-0.47606 2.8396-1.8837 4.4756-2.2519 2.217-0.49892 2.665-0.11851 2.6914 0.37497 0.03935 0.7372-0.01892 4.0883-0.02203 14.601l-0.0043 14.625-0.37301 0.56531c-0.20888 0.25868-0.62577 9e-3 -0.85817-0.0015-0.2324-0.01045 0.49498 0.05821-1.0094-0.28576zm46.23 0.12983v-15.314l-0.05725-14.218 0.73254-0.78341c0.99219-0.5563 1.7569-0.10288 1.7569-0.10288 1.2242 0.38308 3.2496 0.97382 3.9013 1.2875l1.6894 0.81322-0.03767 1.4364 0.03767 11.959c0 13.167-0.11986 13.501-0.41792 14.043-0.50174 0.71112-1.2694 1.0243-4.051 1.5852-1.4073 0.28378-2.3975 0.46732-3.0269-0.17117zm-57.521-18.516c-0.31791-0.13153-0.36306-0.25485-0.50156-0.77825 0-1.6349-0.58408-14.726 0.26778-18.471 2.483-10.915 12.678-17.217 19.429-18.868 12.236-3.407 20.518-4.2225 35.307 1.218 2.7815 1.1877 16.42 8.0704 17.151 19.869 0.69139 4.2085 0.0685 17.049-0.81969 17.269l-2.3017 0.26153 0.0199-5.9936c0.0238-7.1661-2.0313-14.357-4.8941-17.384-5.9168-6.2552-10.298-8.5832-18.137-9.5531-8.0451-0.9953-12.072-0.62594-20.156 0.18132-9.079 1.5328-15.573 5.5832-18.382 9.9002-4.1502 3.6088-4.2741 12.597-4.4155 16.824-0.09424 4.9161-0.02345 5.2019-0.02345 6.0146-0.60967 0-0.7785-0.1232-2.5435-0.48987z" fill="#e53e3e" stroke-width=".26458"/>
 </g>
</svg>
